<svg xmlns="http://www.w3.org/2000/svg" width="256" height="256"><path fill-opacity=".016" d="M0 128.004v128.004l128.25-.254 128.25-.254.254-127.75L257.008 0H0v128.004m.485.496c0 70.4.119 99.053.265 63.672.146-35.38.146-92.98 0-128C.604 29.153.485 58.1.485 128.5" fill="#1976D2" fill-rule="evenodd"/><path fill-opacity=".394" d="M57.831 24.966C29.085 30.168 10.181 47.553 2.883 75.5.261 85.543-.806 110.851.922 122 6.156 155.752 27.738 176.465 60 178.701l8.5.589 9.346 8.605c37.323 34.364 49.578 42.686 64.531 43.817 6.432.487 8.033.244 12.74-1.933 6.836-3.161 32.883-20.412 32.883-21.778 0-2.524-4.117-15.547-5.285-16.714-1.027-1.027-2.534-1.066-7.255-.185-9.419 1.757-26.613.604-34.96-2.344-14.106-4.982-31.5-15.272-31.5-18.635 0-.991 1.013-2.275 2.25-2.852 4.342-2.028 14.691-12.413 19.347-19.416 13.831-20.806 17.921-52.483 10.318-79.919-5.853-21.12-20.511-35.82-41.415-41.532-6.859-1.875-34.069-2.813-41.669-1.438M64.5 56.9c-8.731 3.849-12.306 18.89-11.075 46.6 1.118 25.149 3.675 36.347 9.595 42.019 2.539 2.432 3.999 2.944 9.247 3.239 4.994.281 6.893-.063 9.551-1.73 7.204-4.519 9.764-17.623 8.893-45.528-.804-25.777-3.811-37.569-10.92-42.826-2.982-2.205-11.952-3.246-15.291-1.774m131.75 92.131c-2.583 1.038-2.942 2.766-.75 3.607 1.18.453 1.5 2.498 1.5 9.576 0 7.796-.212 8.919-1.582 8.393-.87-.334-1.995-.607-2.5-.607-.505 0-.918-1.8-.918-4 0-2.889.417-4 1.5-4 .833 0 1.5-.889 1.5-2s-.667-2-1.5-2-1.5-.889-1.5-2c0-2.549-.577-2.504-5.75.454-2.338 1.337-4.25 2.006-4.25 1.488 0-1.545-8.376-1.067-10.777.615-2.449 1.715-3.012 6.254-1.023 8.243.79.79.83 1.2.117 1.2-1.498 0-2.257 4.66-.968 5.949 1.86 1.86 9.072 1.239 11.462-.988 3.201-2.982 2.762-5.69-1.311-8.094-1.925-1.135-3.5-2.54-3.5-3.121s.823-.311 1.829.599c2.264 2.049 4.171 2.134 4.171.186 0-.894.586-1.243 1.5-.893 1.067.41 1.5 2.075 1.5 5.769 0 2.856.54 5.733 1.2 6.393 1.693 1.693 4.823 1.489 6.971-.455 1.666-1.507 1.829-1.511 1.829-.042 0 1.383 1.515 1.614 10.617 1.614h10.616l-.616-3.084c-.339-1.696-.617-5.766-.617-9.046v-5.963l-4.25.711c-4.769.797-6.448 2.414-4.231 4.075.891.668 1.481 2.76 1.481 5.25 0 3.544-.303 4.14-2.108 4.14-2.043 0-2.097-.355-1.743-11.5l.365-11.5-3.007.063c-1.654.035-4.019.471-5.257.968m11.613 1.371c-.903 1.982-.87 2.885.152 4.117 2.811 3.386 8.704-.558 6.378-4.269-1.786-2.848-5.2-2.768-6.53.152M248 156.746c-3.85.263-6.175 1.01-7.75 2.489-2.377 2.233-2.985 6.63-1.168 8.447.776.776.706 1.698-.25 3.261-1.154 1.888-1.094 2.355.447 3.5 1.538 1.141 1.572 1.4.25 1.907-2.06.791-1.929 2.978.3 4.995 2.89 2.615 9.431 2.149 13.094-.934 5.377-4.524 3.657-7.608-5.22-9.362l-4.203-.83 3.677-.109c4.487-.134 8.278-4.161 7.36-7.817-.318-1.267-.119-2.293.444-2.293.56 0 1.019-.9 1.019-2s-.562-1.917-1.25-1.815c-.687.102-3.725.354-6.75.561m-113.665 1.023c-2.353.378-3.833 2.805-2.291 3.758.526.325.956 2.745.956 5.377 0 3.367.542 5.277 1.829 6.441 2.094 1.896 5.268 2.158 6.858.568.783-.783 1.275-.783 1.759 0 1.133 1.833 5.356 1.208 6.919-1.024l1.479-2.112 2.267 2.112c3.71 3.457 12.889 2.019 12.889-2.02 0-1.455-.713-1.766-3.641-1.589-2.185.132-3.818-.28-4.083-1.03-.313-.883.905-1.25 4.141-1.25 4.426 0 4.583-.103 4.583-3 0-6.623-8.139-9.365-13.672-4.606-2.178 1.874-2.783 3.26-2.783 6.381 0 2.944-.354 3.852-1.354 3.468-1.031-.396-1.198-1.873-.699-6.173l.656-5.652-6.824.001c-3.753.001-7.798.158-8.989.35m85-.074c-2.642.515-3.862 3.166-1.818 3.95 1.698.651 2.147 9.355.483 9.355-.55 0-1 .9-1 2 0 1.86.667 2 9.531 2 7.817 0 9.642-.288 10.146-1.601.338-.88.04-1.956-.661-2.389-.915-.566-1.077-2.12-.572-5.488.561-3.741.353-5.089-1.024-6.611-1.956-2.161-5.428-2.503-7.22-.711-.933.933-1.2.933-1.2 0 0-1.174-2.33-1.351-6.665-.505m-79.265 6.055c-.038 2.887.38 5.25.93 5.25 1.203 0 1.203-5.7 0-8.5-.631-1.469-.878-.606-.93 3.25M245 163.5c0 1.689.458 2.514 1.25 2.25.688-.229 1.25-1.242 1.25-2.25s-.562-2.021-1.25-2.25c-.792-.264-1.25.561-1.25 2.25m-86-.5c0 .55.45 1 1 1s1-.45 1-1-.45-1-1-1-1 .45-1 1m67 4c0 2.2.45 4 1 4s1-1.8 1-4-.45-4-1-4-1 1.8-1 4m-52.774 2.574c.95.994 2.001 1.533 2.336 1.197.335-.335-.442-1.148-1.726-1.807-2.233-1.145-2.26-1.118-.61.61M245 178c0 .55.9 1 2 1s2-.45 2-1-.9-1-2-1-2 .45-2 1" fill="#1976D2" fill-rule="evenodd"/><path fill-opacity=".711" d="M59.539 25.046c-16.475 2.584-28.106 8.263-38.583 18.839C7.566 57.401 1.42 73.696.355 98.5c-1.241 28.915 5.63 49.938 20.958 64.129 9.956 9.218 23.097 14.484 39.771 15.939l8.246.719 10.085 9.501c29.53 27.818 45.547 39.364 58.384 42.088 7.816 1.658 11.099 1.385 17.14-1.427 4.188-1.95 33.126-20.18 33.044-20.817-.01-.073-.883-3.464-1.94-7.536-2.738-10.542-2.858-10.618-14.569-9.144-5.384.678-12.417.919-15.831.544-7.095-.781-21.246-5.248-28.88-9.116C118.52 179.203 108 171.958 108 170.458c0-.749 2.026-2.756 4.501-4.459 13.759-9.466 23.151-23.423 28.741-42.71 2.007-6.923 2.25-9.9 2.185-26.789-.061-16.089-.395-20.17-2.179-26.636-6.344-22.988-20.283-37.271-41.934-42.97-9-2.369-30.181-3.353-39.775-1.848m2.76 32.855c-6.681 4.195-9.26 14.512-9.273 37.099-.021 35.365 4.504 50.682 15.99 54.123 5.636 1.689 10.756.34 15.063-3.967 6.018-6.018 7.275-13.968 6.639-41.979-.663-29.148-3.003-39.088-10.511-44.644-3.951-2.924-13.71-3.268-17.908-.632m135.951 90.822c-1.971.245-3.25.969-3.25 1.84 0 .791.45 1.437 1 1.437 1.269 0 1.315 17.954.051 19.952-1.402 2.216-.629 2.608 4.362 2.211 3.09-.245 4.587-.821 4.587-1.764 0-.769-.494-1.399-1.099-1.399-.776 0-.887-3.376-.38-11.5.591-9.455.475-11.472-.651-11.34-.754.088-2.833.342-4.62.563m10.417.944c-1.243 1.242-.676 5.116.833 5.695 1.951.748 4.203-.145 4.891-1.939.893-2.326-.45-4.423-2.831-4.423-1.225 0-2.527.3-2.893.667m-21.167 6.401c-1.65 1.056-3.45 2.09-4 2.296-.626.235-.533 1.166.25 2.492.688 1.164 1.25 4.116 1.25 6.559 0 6.712 3.229 9.214 7.777 6.028 2.772-1.941 2.819-3.054.158-3.75-1.71-.447-2.011-1.197-1.75-4.366.212-2.578.8-3.827 1.801-3.827.818 0 1.638-.787 1.824-1.75.205-1.068-.277-1.75-1.237-1.75-.906 0-1.573-.847-1.573-2 0-2.424-.624-2.415-4.5.068m60.658.839c-5.021.477-6.739 1.093-8.25 2.958-2.348 2.9-2.414 4.919-.239 7.322 1.564 1.728 1.549 1.933-.236 3.239-1.864 1.362-1.865 1.439-.034 3.463 1.694 1.872 1.717 2.129.237 2.697-4.029 1.546.406 6.417 5.837 6.41 4.338-.005 9.527-3.426 9.527-6.281 0-3.13-1.79-4.701-5.45-4.785-1.677-.039-3.935-.417-5.017-.84-1.54-.602-1.043-.892 2.289-1.339 5.657-.759 7.442-2.366 6.984-6.288-.202-1.732.209-3.687.913-4.345 1.395-1.303 1.736-3.211.531-2.966-.412.084-3.604.424-7.092.755m-112.908.816c-3.22.4-4.371 2.466-2.142 3.844.689.425.871 2.161.483 4.592-.344 2.15-.168 4.763.391 5.807 1.475 2.757 4.817 3.526 6.946 1.599 1.596-1.444 1.919-1.454 3.051-.09 1.721 2.073 3.357 1.916 5.576-.536 1.476-1.631 1.592-2.23.554-2.871-.911-.564-1.204-2.602-.96-6.689l.351-5.879-3.5.334c-4.35.416-5.713 1.602-4.089 3.558 1.41 1.699 1.085 8.108-.411 8.108-.55 0-1.134-2.812-1.298-6.25-.163-3.437-.613-6.178-1-6.09-.386.088-2.165.342-3.952.563m21.25.432c-3.219 1.76-4.5 3.985-4.5 7.814 0 6.853 5.747 10.699 11.714 7.839 3.954-1.895 3.616-4.193-.626-4.257-1.876-.028-3.601-.613-3.833-1.301-.292-.865.837-1.25 3.662-1.25 3.987 0 4.083-.081 4.083-3.443 0-5.402-5.411-8.186-10.5-5.402m15.08.96c-3.466 2.727-3.059 5.739 1.131 8.369 1.767 1.109 3.229 2.354 3.25 2.766.074 1.433-2.867.74-3.78-.89-1.219-2.18-3.181-.852-3.181 2.154 0 4.625 10.45 4.25 12.974-.466 1.47-2.747-.042-5.419-3.991-7.055-2.276-.943-2.797-1.574-1.971-2.387.822-.81 1.488-.611 2.489.744 1.68 2.275 3.499 1.339 3.499-1.802 0-4.04-6.048-4.871-10.42-1.433m38.92-1.388c-3.839.546-5.277 1.896-3.7 3.473 1.555 1.555 1.547 8.271-.012 10.768-1.59 2.547-1.171 2.759 4.462 2.255 3.201-.286 4.75-.881 4.75-1.824 0-.769-.496-1.399-1.101-1.399-.765 0-.887-2.145-.399-7 .387-3.85.32-6.933-.149-6.85-.468.082-2.201.342-3.851.577m10.25.001c-3.618.379-5.054 2.348-2.75 3.772.55.34 1 2.59 1 5s-.45 4.66-1 5c-2.129 1.316-.815 2.313 3.5 2.657 2.475.196 4.5.129 4.499-.15 0-.279 2.315-.347 5.145-.151 4.982.345 5.125.282 4.514-2-.347-1.296-.637-4.728-.644-7.627-.012-4.644-.311-5.407-2.51-6.409-2.031-.926-2.837-.829-4.329.521-2.278 2.062-3.291 2.126-2.537.159.317-.825.19-1.424-.281-1.332-.471.093-2.544.345-4.607.56m-62.062 3.918c-1.305 1.304-.682 2.354 1.395 2.354 1.164 0 1.909-.524 1.688-1.187-.487-1.462-2.157-2.094-3.083-1.167m86.496 1.885c.174 1.392.766 2.531 1.316 2.531s1.142-1.139 1.316-2.531c.226-1.804-.152-2.531-1.316-2.531-1.164 0-1.542.727-1.316 2.531m-19.192.991c-1.39 3.656-.911 6.978 1.008 6.978 1.021 0 1.602-1.239 1.818-3.882.414-5.049-1.349-6.981-2.826-3.096m18.702 12.117c-1.043 1.043.278 2.361 2.365 2.361 2.336 0 2.568-1.545.359-2.393-1.952-.749-1.942-.749-2.724.032" fill="#1976D2" fill-rule="evenodd"/><path fill-opacity=".954" d="M64.877 24.994C24.842 28.909 3.693 52.571.52 97c-.682 9.546.705 25.167 3.052 34.378 2.251 8.834 8.595 21.316 13.865 27.281 9.385 10.621 25.107 17.812 42.071 19.243l9.308.785 13.342 12.279c34.468 31.72 46.959 39.809 62.065 40.191 5.209.132 7.297-.359 12.277-2.888 8.251-4.191 30.5-18.998 30.5-20.298 0-2.731-3.407-14.623-4.538-15.84-1.036-1.116-2.461-1.162-7.699-.25-17.813 3.102-36.107-.791-54.093-11.511-9.191-5.478-12.673-8.279-12.644-10.171.014-.934 2.295-3.239 5.068-5.12 11.436-7.76 22.051-22.908 26.707-38.112 3.039-9.928 4.577-24.713 3.832-36.861-2.583-42.16-22.691-63.15-62.633-65.382-4.675-.261-11.93-.14-16.123.27m.727 31.044c-4.244 1.271-8.293 5.614-10.118 10.856-2.36 6.778-3.361 23.883-2.415 41.289 1.005 18.501 2.097 24.606 5.689 31.817 3.808 7.644 7.98 10.3 15.368 9.784 3.095-.217 6.85-1.195 8.344-2.174 7.98-5.228 11.189-26.968 8.503-57.61-1.811-20.657-5.346-29.449-13.291-33.057-4.505-2.045-7.516-2.27-12.08-.905M200 148.731c-4.439.522-6.124 2.041-3.75 3.381 1.461.825 1.75 2.454 1.75 9.879 0 4.89-.45 9.169-1 9.509-2.266 1.4-.726 2.5 3.5 2.5 2.475 0 4.5-.45 4.5-1s-.516-1-1.147-1c-.83 0-.994-3.319-.594-12 .304-6.6.482-11.928.397-11.84-.086.088-1.731.345-3.656.571m8.389 1.699c-.996 2.595.399 4.739 2.857 4.39 1.652-.235 2.254-.987 2.254-2.82 0-1.833-.602-2.585-2.254-2.82-1.353-.192-2.496.308-2.857 1.25m-21.647 6.484c-3.996 2.562-4.35 3.092-2.729 4.094.886.548 1.658 3.169 1.971 6.696.473 5.31.73 5.821 3.068 6.093 1.59.186 3.251-.474 4.405-1.75 1.813-2.003 1.806-2.047-.302-2.047-1.887 0-2.155-.559-2.155-4.5 0-3.333.389-4.5 1.5-4.5 1.933 0 1.945-1.615.017-2.355-.844-.324-1.229-1.232-.893-2.107.78-2.033-1.383-1.867-4.882.376m59.962.999c-3.472.37-6.173 1.214-6.735 2.103-1.275 2.017-1.211 6.342.113 7.666.776.776.706 1.698-.25 3.261-1.158 1.894-1.093 2.356.501 3.539 1.762 1.307 1.754 1.401-.213 2.454-2.659 1.423-1.759 3.646 2.009 4.959 5.538 1.931 12.871-1.417 12.871-5.875 0-2.44-1.065-3.052-6.714-3.86-5.388-.771-6.24-2.302-1.489-2.675 4.63-.365 7.509-3.203 6.808-6.712-.305-1.525-.116-2.773.42-2.773s.975-.675.975-1.5-.562-1.434-1.25-1.353c-.687.081-3.858.425-7.046.766m-112.954.776c-1.853.485-2.446 2.311-.75 2.311.555 0 1 2.66 1 5.981 0 5.636.153 6.019 2.651 6.646 1.561.392 3.495.138 4.705-.617 1.485-.928 2.158-.968 2.432-.146.561 1.684 4.768 1.376 6.292-.461 1.11-1.337 1.08-1.734-.186-2.443-1.191-.666-1.382-2.027-.9-6.403.578-5.258.492-5.557-1.61-5.557-4.556 0-5.07.745-4.581 6.64.418 5.033.283 5.522-1.421 5.177-1.596-.322-1.864-1.248-1.766-6.098.123-6.07-.346-6.472-5.866-5.03m20.227 2.061c-2.576 3.269-2.219 9.869.648 11.965 2.345 1.715 8.519 1.634 10.934-.144 1.777-1.307 1.797-1.484.239-2.088-.936-.363-2.164-.375-2.729-.025-1.232.761-5.069-1.127-5.069-2.493 0-.531 2.025-.965 4.5-.965 4.164 0 4.5-.192 4.5-2.566 0-4.779-1.662-6.434-6.463-6.434-3.599 0-4.783.496-6.56 2.75M171 160c-1.1 1.1-2 2.45-2 3 0 1.155 2.81 3.987 5.588 5.633 1.051.623 1.554 1.506 1.117 1.962-.438.456-1.669.284-2.737-.383-2.903-1.813-4.144-1.473-3.788 1.038.266 1.867 1.038 2.302 4.532 2.556 8.54.619 11.53-4.961 4.788-8.939-3.554-2.096-4.561-3.867-2.2-3.867.715 0 1.832.532 2.483 1.183 1.375 1.375 1.72 1.125 2.66-1.933.647-2.106.399-2.25-3.876-2.25-3.234 0-5.151.584-6.567 2m36.75-1.311c-2.146.561-2.271 1.897-.25 2.673 2.011.771 1.974 7.516-.057 10.415-1.547 2.209-1.525 2.223 3.5 2.223 5.063 0 6.012-.645 3.963-2.694-.637-.637-.951-3.645-.75-7.202.336-5.966.286-6.105-2.156-5.99-1.375.065-3.287.324-4.25.575m11 0c-2.146.561-2.271 1.897-.25 2.673 2.011.771 1.974 7.516-.057 10.415-1.538 2.197-1.504 2.223 2.866 2.223h4.423l-.116-5.719c-.099-4.867.167-5.776 1.782-6.102 1.745-.352 1.854.11 1.345 5.719L228.19 174h3.905c3.68 0 5.071-1.161 2.955-2.469-.525-.325-.687-2.798-.362-5.541.658-5.557-.594-7.99-4.11-7.99-1.198 0-2.774.563-3.503 1.25-1.06 1-1.417 1-1.783 0-.452-1.231-3.108-1.458-6.542-.561m26.281 2.774c-1.469 1.77-.424 5.537 1.536 5.537.919 0 1.433-1.055 1.433-2.941 0-3.476-1.297-4.611-2.969-2.596m-86.654.997c-.343.894-.408 1.842-.144 2.107.847.847 3.865-.774 3.497-1.878-.601-1.802-2.695-1.945-3.353-.229m85.811 15.279c.385 1.997 2.677 2.667 4.69 1.372 1.958-1.26.464-3.111-2.51-3.111-1.85 0-2.426.459-2.18 1.739" fill="#1976D2" fill-rule="evenodd"/></svg>