<svg xmlns="http://www.w3.org/2000/svg" width="256" height="256"><path fill-opacity=".016" d="M0 128.004v128.004l128.25-.254 128.25-.254.254-127.75L257.008 0H0v128.004m.485.496c0 70.4.119 99.053.265 63.672.146-35.38.146-92.98 0-128C.604 29.153.485 58.1.485 128.5" fill="#1976D2" fill-rule="evenodd"/><path fill-opacity=".243" d="M59.5 41.477c-24.994 5.488-40.316 21.34-45.67 47.249-1.671 8.088-1.936 12.276-1.535 24.274.543 16.281 1.959 22.861 7.25 33.7C27.76 163.528 46.353 174.86 66 175.013l5.5.043 12.5 11.56c26.568 24.569 40.013 33.589 52.153 34.986 5.007.576 6.34.308 11.646-2.344 7.843-3.919 28.201-17.21 28.201-18.411 0-2.756-3.417-13.948-4.544-14.884-.943-.782-2.943-.79-7.069-.027-8.575 1.585-16.152 1.298-24.923-.945-12.9-3.3-32.464-13.795-32.464-17.416 0-.776 1.534-2.36 3.409-3.519 4.758-2.94 14.73-13.827 18.017-19.67 1.512-2.687 4.158-8.936 5.88-13.886 3.044-8.749 3.132-9.488 3.142-26.5.008-13.833-.369-18.862-1.797-24-5.735-20.636-18.022-32.852-38.247-38.025-9.154-2.341-28.363-2.593-37.904-.498m6.901 28.361c-1.816 1.142-3.796 3.691-4.783 6.159-2.607 6.515-3.691 22.104-2.661 38.251C60.718 141.843 64.396 149 76.815 149c6.024 0 9.28-2.28 11.625-8.141 4.806-12.013 3.355-55.085-2.204-65.405-3.672-6.817-13.501-9.6-19.835-5.616m117.849 78.868c-2.179.419-3.269 3.294-1.25 3.294.584 0 1 3.369 1 8.107 0 6.982-.22 8.023-1.582 7.5-.87-.334-1.995-.607-2.5-.607-.505 0-.918-1.575-.918-3.5 0-2.444.452-3.5 1.5-3.5.825 0 1.5-.675 1.5-1.5s-.398-1.5-.883-1.5c-.486 0-1.126-.928-1.423-2.061-.53-2.029-.603-2.021-4.616.512-2.243 1.416-4.078 2.118-4.078 1.562 0-1.292-6.554-1.322-8.948-.041-4.07 2.178-3.233 6.78 1.723 9.469 1.856 1.008 2.186 1.492 1.034 1.519-.93.022-1.969-.41-2.309-.96-1.198-1.938-3.5-1.022-3.5 1.393 0 3.561 4.443 4.729 9.398 2.472 4.616-2.104 4.34-5.915-.612-8.476-1.635-.845-2.749-1.759-2.476-2.032.272-.273 1.498.098 2.723.824 1.763 1.044 2.323 1.058 2.681.069 1.003-2.771 2.286-.987 2.286 3.179 0 6.713 3.232 9.198 7.802 5.997 1.687-1.181 2.179-1.244 1.973-.25-.219 1.054 3.346 1.364 17.451 1.518 17.61.193 20.207-.263 17.83-3.126-.669-.806-.863-2.922-.485-5.284.474-2.966.216-4.354-1.042-5.612-1.908-1.908-5.083-2.203-6.095-.565-.492.796-.888.776-1.413-.073-1.008-1.631-8.021-.252-8.021 1.577 0 .764.45 1.389 1 1.389 1.083 0 1.37 5.872.41 8.374-.441 1.148-.893 1.253-1.792.414-.774-.723-1.057-3.247-.797-7.088l.405-5.965-3.863.71c-4.87.896-6.48 2.331-4.113 3.667 2.248 1.268 2.406 7.422.212 8.264-2.288.878-2.751-1.446-2.275-11.412.47-9.823.679-9.533-5.937-8.258m9.95.494c-2.962 2.962.13 7.343 3.626 5.138 2.274-1.434 2.474-2.895.647-4.722-1.931-1.931-2.684-2.005-4.273-.416m34.186 6.706c-2.813.343-5.851 1.235-6.75 1.981-1.822 1.513-2.216 6.637-.587 7.643.71.439.648 1.13-.19 2.14-.967 1.165-.976 1.913-.04 3.411.727 1.165.801 1.919.189 1.919-.554 0-1.008.884-1.008 1.965 0 4.181 7.942 5.442 12.365 1.962 4.465-3.511 2.938-7.855-2.815-8.009l-3.05-.081 3.173-1.39c1.746-.765 3.376-1.741 3.623-2.169.926-1.604 1.794-10.272 1.015-10.137-.446.077-3.112.421-5.925.765m-99.058.789c-2.006.391-2.129.856-1.618 6.114.305 3.13 1.239 6.478 2.077 7.441 1.692 1.945 4.744 2.317 5.743.701.446-.721 1.074-.695 2.011.083 1.674 1.389 5.064.437 5.864-1.647.506-1.318.965-1.241 3.227.538 2.997 2.357 5.162 2.582 8.821.914 3.764-1.715 3.237-3.839-.953-3.839-1.925 0-3.5-.45-3.5-1s1.575-1 3.5-1c3.327 0 3.5-.172 3.5-3.465 0-3.824-2.003-5.535-6.48-5.535-3.595 0-7.52 4.152-7.52 7.955 0 1.675-.502 3.045-1.115 3.045-.771 0-.899-1.729-.416-5.598l.699-5.598-3.334.716c-4.69 1.006-4.649.944-4.066 6.114.405 3.596.237 4.487-.736 3.886-.849-.525-1.109-2.37-.794-5.65.498-5.176.448-5.218-4.91-4.175M150.5 161c-.34.55.084 1 .941 1s1.559-.45 1.559-1-.423-1-.941-1-1.219.45-1.559 1m75.5 1c0 1.1.45 2 1 2s1-.9 1-2-.45-2-1-2-1 .9-1 2m-17 2.441c0 1.893.45 3.719 1 4.059.604.373 1-.99 1-3.441 0-2.232-.45-4.059-1-4.059s-1 1.548-1 3.441M226 174c0 .55 1.012.993 2.25.985 1.819-.013 1.963-.201.75-.985-1.939-1.253-3-1.253-3 0" fill="#1976D2" fill-rule="evenodd"/><path fill-opacity=".737" d="M64.315 40.94C38.17 45.106 21.067 60.713 14.391 86.5c-2.812 10.863-2.595 36.333.399 46.799 6.465 22.6 20.02 35.73 41.418 40.12 4.239.869 9.562 1.581 11.829 1.581 3.864 0 4.847.68 15.792 10.926 21.553 20.179 34.347 29.881 43.763 33.191 7.268 2.554 15.365 2.454 20.698-.257 5.326-2.708 26.25-16.306 27.028-17.566.836-1.352-2.216-12.486-3.955-14.428-1.157-1.292-2.234-1.454-5.163-.773-2.035.472-7.895.87-13.022.883-11.787.03-23.972-3.754-36.86-11.447-10.913-6.514-11.126-7.592-2.818-14.277 10.64-8.562 17.812-20.376 22.314-36.752 2.302-8.376 2.215-33.327-.15-42.9-5.105-20.662-17.76-33.987-37.164-39.129-6.973-1.848-26.663-2.73-34.185-1.531m5.304 27.084c-4.406 1.335-7.499 4.843-9.185 10.417-3.384 11.191-2.71 45.533 1.15 58.529 4.957 16.693 23.128 17.463 28.163 1.193 1.423-4.596 1.741-9.244 1.688-24.663-.07-20.768-1.332-30.6-4.812-37.486-3.328-6.586-10.506-9.959-17.004-7.99M185.75 148.81c-2.453.203-3.75.809-3.75 1.75 0 .792.493 1.44 1.097 1.44.742 0 .984 3.065.75 9.501l-.347 9.501h7l-.201-11.118c-.11-6.115-.335-11.178-.5-11.251-.164-.073-1.986.007-4.049.177m7.841 1.815c-.371.965-.064 2.331.695 3.089 1.912 1.913 4.891.533 4.517-2.091-.384-2.689-4.278-3.435-5.212-.998m-18.839 5.216c-2.648 1.598-3.759 4.159-1.804 4.159.521 0 1.083 2.363 1.25 5.25.265 4.614.581 5.29 2.607 5.577 2.313.328 5.195-1.308 5.195-2.949 0-.483-.562-.765-1.25-.628-.782.156-1.366-1.155-1.56-3.5-.237-2.864.058-3.75 1.25-3.75.858 0 1.56-.675 1.56-1.5s-.661-1.5-1.469-1.5c-.894 0-1.243-.586-.893-1.5.746-1.942-1.345-1.796-4.886.341m-44.17 1.145c-2.842.501-4.955 3.014-2.534 3.014.832 0 1.053 1.21.701 3.834-.283 2.109-.095 4.584.418 5.5 1.053 1.882 4.878 2.221 6.52.579.783-.783 1.275-.783 1.759 0 .987 1.596 4.112 1.324 5.617-.489 1.07-1.29 1.072-1.722.012-2.377-.855-.529-1.171-2.375-.928-5.424.366-4.61.359-4.623-2.831-4.623-3.29 0-5.133 1.377-3.332 2.49 1.637 1.012 1.262 7.51-.434 7.51-1.045 0-1.534-1.47-1.75-5.264-.297-5.217-.326-5.26-3.218-4.75m18.418.308c-3.606 1.824-5.291 5.811-3.948 9.343.59 1.552 1.607 3.162 2.261 3.577 1.968 1.252 8.365.879 9.556-.556 1.472-1.774.365-2.755-2.342-2.076-1.316.331-2.688-.071-3.474-1.018-1.142-1.376-.802-1.564 2.825-1.564 3.896 0 4.122-.162 4.122-2.943 0-1.908-.782-3.491-2.223-4.5-2.673-1.873-3.528-1.906-6.777-.263m14-.006c-1.546.778-2.619 2.277-2.811 3.928-.248 2.126.319 2.995 2.783 4.269 1.701.88 2.809 2.06 2.461 2.623-.391.634-1.377.348-2.593-.753-1.687-1.526-2.092-1.571-2.886-.315-1.889 2.986-.58 4.16 4.639 4.16 6.751 0 8.999-5.808 3.374-8.717-1.754-.907-2.744-2.036-2.347-2.677.459-.743 1.108-.53 1.966.643 1.491 2.039 3.414 1.25 3.414-1.401 0-3.033-3.807-3.871-8-1.76m32.25-.499c-2.002.208-3.25.889-3.25 1.774 0 .791.45 1.437 1 1.437s1 1.773 1 3.941-.45 4.219-1 4.559c-2.149 1.328-.821 2.5 2.833 2.5 4.441 0 5.604-.768 4.032-2.663-.658-.792-.92-3.417-.636-6.372.266-2.764.21-5.135-.123-5.269-.333-.134-2.069-.092-3.856.093m9.829.211c-3.173.464-5.742 3-3.039 3 .852 0 1.073 1.619.752 5.5l-.457 5.5h15.167l-.207-5.75a715.428 715.428 0 0 0-.251-6.465c-.024-.393-.981-1.216-2.127-1.83-1.651-.883-2.463-.771-3.912.541-1.419 1.283-1.905 1.357-2.167.329-.231-.906-1.421-1.167-3.759-.825m18.201.081c-2.732 1.024-3.856 4.975-2.262 7.953.883 1.65.896 2.401.051 2.923-1.333.824-.354 4.043 1.229 4.043.596 0 .228.626-.819 1.392-1.562 1.142-1.679 1.662-.65 2.902 1.947 2.346 5.823 2.878 9.566 1.314 6.68-2.791 5.31-8.608-2.027-8.608-1.788 0-3.528-.45-3.868-1-.366-.592.771-1 2.786-1 4.042 0 7.222-2.949 6.433-5.966-.292-1.118-.123-2.284.375-2.592.498-.308.906-.932.906-1.386 0-1.072-8.842-1.053-11.72.025m2.72 4.36c0 1.343.403 2.69.895 2.994 1.177.727 2.201-2.021 1.467-3.935-.9-2.343-2.362-1.761-2.362.941M150 161c0 .55.675 1 1.5 1s1.5-.45 1.5-1-.675-1-1.5-1-1.5.45-1.5 1m59 3.941c0 4.152 1.371 6.14 2.395 3.471 1.184-3.086.662-7.412-.895-7.412-1.08 0-1.5 1.105-1.5 3.941m16.222 9.225c.517 1.55 3.659 1.81 4.028.334.137-.55-.813-1.15-2.111-1.334-1.619-.229-2.222.085-1.917 1" fill="#1976D2" fill-rule="evenodd"/><path fill-opacity=".96" d="M67.273 40.997c-38.352 4.213-57.627 32.245-54.121 78.71 1.286 17.052 6.618 30.026 16.325 39.72 8.747 8.736 20.126 13.502 36.023 15.088l7 .698 9.374 8.643c30.348 27.983 41.311 35.462 53.91 36.779 5.059.529 6.795.247 11.376-1.851 4.27-1.954 15.376-8.873 27.193-16.94 1.144-.781-1.032-12.023-2.795-14.433-1.044-1.428-2.195-1.468-10.618-.366-8.236 1.078-10.535 1.018-17.943-.468C129.838 183.938 106 171.695 106 167.575c0-.776 1.463-2.323 3.25-3.437 5.126-3.195 14.298-13.076 18.228-19.638 6.46-10.787 8.737-19.895 9.281-37.115.57-18.064-1.055-28.046-6.378-39.166-4.011-8.379-11.399-16.335-18.952-20.412-10.594-5.717-28.69-8.508-44.156-6.81m.026 27.571C59.49 72.555 57.579 80.911 58.28 108c.545 21.044 1.765 28.87 5.492 35.202 5.489 9.326 20.054 9.007 24.584-.539 3.146-6.631 3.893-14.409 3.33-34.663-.687-24.691-2.832-33.046-9.822-38.255-3.595-2.68-10.524-3.24-14.565-1.177M183.5 149.963c-1.836.755-1.856.881-.25 1.537 1.457.594 1.75 2.026 1.75 8.548 0 4.309-.45 8.112-1 8.452-2.18 1.347-.797 2.5 3 2.5 2.2 0 4-.45 4-1s-.51-1-1.134-1c-.801 0-.992-2.931-.652-10 .465-9.658.41-9.998-1.616-9.93-1.154.039-2.998.441-4.098.893m11.201-.331c-.385.386-.701 1.558-.701 2.604 0 1.402.593 1.819 2.25 1.584 1.471-.209 2.25-1.008 2.25-2.306 0-1.984-2.472-3.208-3.799-1.882m-19.54 6.406c-2.452 1.499-3.067 2.37-2.314 3.277.564.68 1.166 3.474 1.339 6.21.285 4.51.556 5.003 2.9 5.276 1.438.167 3.156-.388 3.872-1.25 1.066-1.285 1.027-1.551-.229-1.551-3.106 0-2.966-6.276.195-8.718 1.423-1.1 1.413-1.221-.104-1.25-.925-.018-1.825-.933-2-2.033-.319-1.996-.329-1.996-3.659.039m53.364.706c-2.736.211-5.548.86-6.25 1.442-1.545 1.283-1.692 6.438-.21 7.354.705.436.527 1.253-.525 2.416-1.454 1.607-1.452 1.872.025 3.098 1.482 1.23 1.472 1.446-.123 2.612-1.432 1.047-1.515 1.541-.468 2.803 2.025 2.439 8.44 1.943 11.72-.906 2.586-2.246 2.679-2.566 1.194-4.077-.887-.902-3.475-1.889-5.75-2.194-4.771-.64-5.591-2.292-1.138-2.292 4.04 0 7.228-3.242 6.407-6.515-.383-1.527-.197-2.485.485-2.485.609 0 1.108-.45 1.108-1s-.338-.919-.75-.82c-.412.099-2.989.353-5.725.564m-99.099 1.021c-.668.457-.857 2.774-.5 6.132.659 6.198 2.752 8.41 6.024 6.366 1.232-.769 2.182-.859 2.563-.243.89 1.441 4.066 1.192 5.406-.423.891-1.072.875-1.499-.065-1.812-.804-.268-1.147-2.202-.992-5.597.183-4.002-.099-5.188-1.231-5.188-3.523 0-4.487 1.111-3.932 4.534.764 4.706-.229 7.101-2.249 5.425-1.15-.955-1.366-2.338-.875-5.613.572-3.809.422-4.344-1.211-4.331-1.025.009-2.347.346-2.938.75M147 159c-2.554 2.554-2.645 8.106-.171 10.345 1.856 1.68 5.715 2.151 8.589 1.048 2.758-1.058 1.708-2.913-1.643-2.903-2.277.007-3.327-.504-3.573-1.74-.286-1.437.379-1.75 3.725-1.75 4.348 0 5.088-1.234 3.038-5.066-1.417-2.647-7.291-2.608-9.965.066m14.75-.92c-2.715 1.581-2.118 4.804 1.244 6.717 1.646.936 2.996 2.266 3 2.953.009 1.76-2.937 1.562-3.63-.244-.756-1.97-2.364-.913-2.364 1.553 0 1.592.706 1.941 3.929 1.941 6.866 0 9.369-4.785 4.077-7.797-1.646-.936-2.996-2.265-3-2.953-.007-1.495 1.624-1.658 2.494-.25.99 1.603 2.225 1.16 2.79-1 .453-1.734.037-1.996-3.134-1.97-2.011.017-4.443.489-5.406 1.05m31.816-.182c-1.329.52-1.563.986-.75 1.489 1.432.885 1.599 9.613.184 9.613-.55 0-1 .45-1 1s1.848 1 4.107 1c3.334 0 3.993-.298 3.5-1.582-.334-.87-.607-4.02-.607-7 0-5.737-.745-6.356-5.434-4.52m9.434.193c-1.129.799-1.191 1.187-.25 1.568 1.487.604 1.694 7.948.25 8.841-2.057 1.271-.888 2.5 2.377 2.5h3.377l-.483-4.289c-.355-3.149-.059-4.642 1.111-5.613 1.344-1.115 1.695-1.062 2.231.337.351.913.399 3.439.107 5.613-.527 3.933-.513 3.952 2.875 3.952 3.272 0 4.221-.85 2.676-2.396-.401-.401-.739-3.063-.75-5.917-.019-4.686-.249-5.219-2.386-5.522-1.301-.184-2.854.154-3.45.75-1.363 1.363-3.014 1.427-2.185.085.824-1.333-3.59-1.259-5.5.091m-52.655 2.452c-.754 1.966.138 2.869 2.095 2.118.879-.337 1.276-1.238.936-2.123-.758-1.976-2.272-1.973-3.031.005m75.049-.126c-.828 2.157.323 4.844 1.857 4.333.687-.229 1.249-1.467 1.249-2.75 0-2.741-2.227-3.876-3.106-1.583m-.006 12.764c-.337.546-.143 1.464.432 2.039 1.153 1.153 4.18.376 4.18-1.072 0-1.326-3.886-2.141-4.612-.967" fill="#1976D2" fill-rule="evenodd"/></svg>